<mxfile host="app.diagrams.net" modified="2023-12-04T22:06:46.233Z" agent="Mozilla/5.0 (Windows NT 10.0; Win64; x64) AppleWebKit/537.36 (KHTML, like Gecko) Chrome/119.0.0.0 Safari/537.36" etag="bS6hhg-3iv8ObxzgUfAi" version="22.1.5" type="device">
  <diagram id="C5RBs43oDa-KdzZeNtuy" name="Page-1">
    <mxGraphModel dx="1674" dy="780" grid="1" gridSize="10" guides="1" tooltips="1" connect="1" arrows="1" fold="1" page="1" pageScale="1" pageWidth="827" pageHeight="1169" math="0" shadow="0">
      <root>
        <mxCell id="WIyWlLk6GJQsqaUBKTNV-0" />
        <mxCell id="WIyWlLk6GJQsqaUBKTNV-1" parent="WIyWlLk6GJQsqaUBKTNV-0" />
        <mxCell id="mASPRx3vXoEcOZi0qbDJ-0" value="Bank account" style="swimlane;fontStyle=1;align=center;verticalAlign=top;childLayout=stackLayout;horizontal=1;startSize=26;horizontalStack=0;resizeParent=1;resizeParentMax=0;resizeLast=0;collapsible=1;marginBottom=0;whiteSpace=wrap;html=1;" vertex="1" parent="WIyWlLk6GJQsqaUBKTNV-1">
          <mxGeometry x="50" y="160" width="280" height="280" as="geometry" />
        </mxCell>
        <mxCell id="mASPRx3vXoEcOZi0qbDJ-1" value="accountNumber: string&lt;br&gt;accountHolder: string&lt;br&gt;balance: double" style="text;strokeColor=none;fillColor=none;align=left;verticalAlign=top;spacingLeft=4;spacingRight=4;overflow=hidden;rotatable=0;points=[[0,0.5],[1,0.5]];portConstraint=eastwest;whiteSpace=wrap;html=1;" vertex="1" parent="mASPRx3vXoEcOZi0qbDJ-0">
          <mxGeometry y="26" width="280" height="124" as="geometry" />
        </mxCell>
        <mxCell id="mASPRx3vXoEcOZi0qbDJ-2" value="" style="line;strokeWidth=1;fillColor=none;align=left;verticalAlign=middle;spacingTop=-1;spacingLeft=3;spacingRight=3;rotatable=0;labelPosition=right;points=[];portConstraint=eastwest;strokeColor=inherit;" vertex="1" parent="mASPRx3vXoEcOZi0qbDJ-0">
          <mxGeometry y="150" width="280" height="8" as="geometry" />
        </mxCell>
        <mxCell id="mASPRx3vXoEcOZi0qbDJ-3" value="&lt;pre&gt;deposit(amount: double&lt;/pre&gt;&lt;pre&gt;withdraw(amount: double)&lt;/pre&gt;&lt;pre&gt;getBalance(): double&lt;/pre&gt;" style="text;strokeColor=none;fillColor=none;align=left;verticalAlign=top;spacingLeft=4;spacingRight=4;overflow=hidden;rotatable=0;points=[[0,0.5],[1,0.5]];portConstraint=eastwest;whiteSpace=wrap;html=1;" vertex="1" parent="mASPRx3vXoEcOZi0qbDJ-0">
          <mxGeometry y="158" width="280" height="122" as="geometry" />
        </mxCell>
        <mxCell id="mASPRx3vXoEcOZi0qbDJ-8" value="Monika" style="swimlane;fontStyle=1;align=center;verticalAlign=top;childLayout=stackLayout;horizontal=1;startSize=26;horizontalStack=0;resizeParent=1;resizeParentMax=0;resizeLast=0;collapsible=1;marginBottom=0;whiteSpace=wrap;html=1;" vertex="1" parent="WIyWlLk6GJQsqaUBKTNV-1">
          <mxGeometry x="470" y="160" width="280" height="280" as="geometry" />
        </mxCell>
        <mxCell id="mASPRx3vXoEcOZi0qbDJ-9" value="accountNumber: &quot;2345456545678765&quot;&lt;br&gt;accountHolder: &quot;Monika&quot;&lt;br&gt;balance: 7.560" style="text;strokeColor=none;fillColor=none;align=left;verticalAlign=top;spacingLeft=4;spacingRight=4;overflow=hidden;rotatable=0;points=[[0,0.5],[1,0.5]];portConstraint=eastwest;whiteSpace=wrap;html=1;" vertex="1" parent="mASPRx3vXoEcOZi0qbDJ-8">
          <mxGeometry y="26" width="280" height="124" as="geometry" />
        </mxCell>
        <mxCell id="mASPRx3vXoEcOZi0qbDJ-10" value="" style="line;strokeWidth=1;fillColor=none;align=left;verticalAlign=middle;spacingTop=-1;spacingLeft=3;spacingRight=3;rotatable=0;labelPosition=right;points=[];portConstraint=eastwest;strokeColor=inherit;" vertex="1" parent="mASPRx3vXoEcOZi0qbDJ-8">
          <mxGeometry y="150" width="280" height="8" as="geometry" />
        </mxCell>
        <mxCell id="mASPRx3vXoEcOZi0qbDJ-11" value="&lt;pre&gt;deposit(amount: double&lt;/pre&gt;&lt;pre&gt;withdraw(amount: double)&lt;/pre&gt;&lt;pre&gt;getBalance(): double&lt;/pre&gt;" style="text;strokeColor=none;fillColor=none;align=left;verticalAlign=top;spacingLeft=4;spacingRight=4;overflow=hidden;rotatable=0;points=[[0,0.5],[1,0.5]];portConstraint=eastwest;whiteSpace=wrap;html=1;" vertex="1" parent="mASPRx3vXoEcOZi0qbDJ-8">
          <mxGeometry y="158" width="280" height="122" as="geometry" />
        </mxCell>
      </root>
    </mxGraphModel>
  </diagram>
</mxfile>
